<svg width="61" height="61" viewBox="0 0 61 61" fill="none" xmlns="http://www.w3.org/2000/svg">
<path d="M54.1122 19.6771H37.3865C33.5898 19.6771 30.4995 16.5868 30.4995 12.7901C30.4995 8.99342 33.5898 5.90312 37.3865 5.90312C37.7634 5.90312 38.1382 5.9337 38.5082 5.99465C39.8797 2.42232 43.339 0 47.2252 0C51.1537 0 54.6868 2.50993 56.0122 6.17089C58.9343 7.00726 60.9994 9.70189 60.9994 12.7903C60.9992 16.5868 57.9089 19.6771 54.1122 19.6771Z" fill="url(#paint0_linear_221_175)"/>
<path d="M59.6056 32.1459C56.1651 30.425 52.3122 29.5159 48.4652 29.5159H36.0596L24.9094 21.645H15.3354L23.2063 29.5159H15.1327L6.27792 21.645H0.454346L4.3525 30.4172L2.95249 30.6504V33.9573L3.58122 34.4068C8.11284 37.6438 13.4523 39.3548 19.0211 39.3548H21.2387L14.0397 46.5536L15.0453 47.2176C15.3591 47.4253 15.6552 47.6643 15.9249 47.928L16.212 48.2094H21.9588L34.503 39.3546H48.2181C51.6115 39.3546 54.9134 38.6767 58.0312 37.3405L59.4715 36.7236C60.4002 36.3242 61.0004 35.4141 61.0004 34.4035C61.0006 33.4416 60.4663 32.5767 59.6056 32.1459ZM20.0854 23.6128H24.2856L32.6485 29.5159H25.9887L20.0854 23.6128ZM3.48266 23.6128H5.53019L12.1713 29.5159H10.8166C10.1141 29.5159 9.40665 29.575 8.71408 29.6901L6.35767 30.0827L3.48266 23.6128ZM58.6965 34.9145L57.2562 35.5314C54.3832 36.7633 51.3442 37.387 48.2183 37.387H37.2906L38.9396 36.2232L37.8043 34.6155L21.3344 46.2418H17.1339L27.2608 36.1149L25.8697 34.7238L23.2065 37.387H19.0209C13.9451 37.387 9.07504 35.8513 4.92006 32.9438V32.3172L9.03764 31.6304C9.624 31.5331 10.2232 31.4837 10.8166 31.4837H48.4652C52.0091 31.4837 55.557 32.3209 58.725 33.905C58.9149 34.0004 59.0328 34.1913 59.0328 34.4037C59.0328 34.6261 58.9 34.8269 58.6965 34.9145Z" fill="url(#paint1_linear_221_175)"/>
<path d="M20.0854 23.6128H24.2856L32.6485 29.5159H25.9887L20.0854 23.6128Z" fill="url(#paint2_linear_221_175)"/>
<path d="M58.6965 34.9145L57.2562 35.5314C54.3832 36.7633 51.3442 37.387 48.2183 37.387H37.2906L38.9396 36.2232L37.8043 34.6155L21.3344 46.2418H17.1339L27.2608 36.1149L25.8697 34.7238L23.2065 37.387H19.0209C13.9451 37.387 9.07504 35.8513 4.92006 32.9438V32.3172L9.03764 31.6304C9.624 31.5331 10.2232 31.4837 10.8166 31.4837H48.4652C52.0091 31.4837 55.557 32.3209 58.725 33.905C58.9149 34.0004 59.0328 34.1913 59.0328 34.4037C59.0328 34.6261 58.9 34.8269 58.6965 34.9145Z" fill="url(#paint3_linear_221_175)"/>
<path d="M3.48266 23.6128H5.53019L12.1713 29.5159H10.8166C10.1141 29.5159 9.40665 29.575 8.71408 29.6901L6.35767 30.0827L3.48266 23.6128Z" fill="url(#paint4_linear_221_175)"/>
<path d="M17.7096 60.0155H5.90312C2.64753 60.0155 0 57.3679 0 54.1123C0 51.2218 2.12811 48.7739 4.9401 48.3105C6.32337 45.841 8.95912 44.2737 11.8064 44.2737C15.5472 44.2737 18.7507 46.9193 19.5042 50.5251C21.3736 51.2543 22.629 53.0487 22.629 55.0962C22.629 57.8086 20.4222 60.0155 17.7096 60.0155Z" fill="url(#paint5_linear_221_175)"/>
<defs>
<linearGradient id="paint0_linear_221_175" x1="60.3552" y1="18.173" x2="47.7853" y2="-21.4381" gradientUnits="userSpaceOnUse">
<stop stop-color="#F09642"/>
<stop offset="1" stop-color="#F4E26E"/>
</linearGradient>
<linearGradient id="paint1_linear_221_175" x1="-1.10964" y1="23.3541" x2="54.6752" y2="82.2124" gradientUnits="userSpaceOnUse">
<stop stop-color="#272671"/>
<stop offset="1" stop-color="#7BB3CB"/>
</linearGradient>
<linearGradient id="paint2_linear_221_175" x1="-1.10964" y1="23.3541" x2="54.6752" y2="82.2124" gradientUnits="userSpaceOnUse">
<stop stop-color="#272671"/>
<stop offset="1" stop-color="#7BB3CB"/>
</linearGradient>
<linearGradient id="paint3_linear_221_175" x1="-1.10964" y1="23.3541" x2="54.6752" y2="82.2124" gradientUnits="userSpaceOnUse">
<stop stop-color="#272671"/>
<stop offset="1" stop-color="#7BB3CB"/>
</linearGradient>
<linearGradient id="paint4_linear_221_175" x1="-1.10964" y1="23.3541" x2="54.6752" y2="82.2124" gradientUnits="userSpaceOnUse">
<stop stop-color="#272671"/>
<stop offset="1" stop-color="#7BB3CB"/>
</linearGradient>
<linearGradient id="paint5_linear_221_175" x1="22.1511" y1="58.8122" x2="11.467" y2="27.5877" gradientUnits="userSpaceOnUse">
<stop stop-color="#F09642"/>
<stop offset="1" stop-color="#F4E26E"/>
</linearGradient>
</defs>
</svg>
