<svg width="62" height="62" viewBox="0 0 62 62" fill="none" xmlns="http://www.w3.org/2000/svg">
<g clip-path="url(#clip0_221_182)">
<path d="M24.2978 38.0643C24.1259 38.0418 22.9528 35.6662 22.9528 35.6662L20.6253 33.8738L19.3779 35.1215L18.2579 36.1849C17.9476 36.4918 17.6614 36.8187 17.3995 37.162L17.2715 39.445L20.3646 40.9053C20.3646 40.9054 24.4696 38.0869 24.2978 38.0643Z" fill="#FFE0D1"/>
<path d="M28.9909 29.0693L27.3338 27.6835C26.5316 27.0127 25.3587 27.1455 24.714 27.9801C24.0693 28.8147 24.197 30.0352 24.999 30.706L26.6561 32.0918L27.8304 33.0465L30.5073 30.4105L28.9909 29.0693Z" fill="#FABC91"/>
<path d="M20.5284 36.8923C20.7915 36.5389 21.0789 36.2024 21.3907 35.8863L22.2349 35.0648L20.7204 33.8738L19.4377 35.1841L18.2859 36.3007C17.9667 36.623 17.6725 36.9664 17.4031 37.3268L17.2715 39.7243L18.863 40.4917C19.1658 39.1877 19.7324 37.9612 20.5284 36.8923Z" fill="#FAA875"/>
<path d="M24.187 34.809L22.4736 33.4622C21.6441 32.8104 20.4313 32.9394 19.7646 33.7504C19.098 34.5614 19.23 35.7474 20.0593 36.3993L21.7728 37.7459L23.9867 39.6645L26.3711 36.6224L24.187 34.809Z" fill="#FABC91"/>
<path d="M26.4217 31.9421L24.7956 30.5737C24.0084 29.9113 22.8573 30.0424 22.2247 30.8665C21.592 31.6907 21.7172 32.8957 22.5044 33.5581L24.1305 34.9265L26.2033 36.7693L28.4392 33.5926L26.4217 31.9421Z" fill="#FABC91"/>
<path d="M30.5073 30.3682L28.9889 29.0056L27.8869 28.0703L26.4156 30.0208C26.2755 30.2066 26.019 30.2366 25.8437 30.0878L25.8341 30.0797C25.0309 29.3981 24.9032 28.1581 25.5487 27.3101C25.563 27.2913 25.5797 27.2738 25.5944 27.2559C25.2195 27.3818 24.8765 27.6347 24.6303 28.0065C24.0634 28.8624 24.2564 30.0441 25.0274 30.6985L26.6513 32.0765L27.8271 33.0465L28.383 32.491L30.5073 30.3682Z" fill="#FAA875"/>
<path d="M28.4392 33.6689L26.4204 32.0581L25.3524 31.1815L24.0218 32.8875C23.8627 33.0915 23.5714 33.1246 23.3724 32.9611L23.223 32.8385C22.5451 32.2821 22.36 31.3313 22.7244 30.5649C22.435 30.7378 22.1813 30.999 22.0127 31.3378C21.6174 32.1323 21.855 33.1052 22.5352 33.6635L24.1279 34.9707L26.202 36.7692L26.8336 35.894L28.4392 33.6689Z" fill="#FAA875"/>
<path d="M31.2992 40.8425L30.6056 40.6817C29.7502 40.4838 29.1469 39.7188 29.1545 38.8416C29.1593 38.3287 29.3696 37.8653 29.7064 37.5304C30.0442 37.1945 30.5085 36.9871 31.0204 36.9852L34.9425 36.97C35.52 36.9681 36.0833 37.1489 36.5514 37.4866L41.4906 41.0414C42.0329 41.4325 42.4811 41.9387 42.8027 42.5238L44.6467 45.8778L51.1928 51.1394C51.6712 51.5239 51.739 52.227 51.3427 52.6958L44.0682 61.3013C43.6856 61.7539 43.0117 61.8188 42.5498 61.4474L37.6028 57.4708L37.3326 57.4603C35.7293 57.4013 34.1822 56.8523 32.8987 55.8875L29.8006 53.5573C29.8006 53.5573 24.5779 49.6695 24.5779 49.543C24.5779 49.4488 28.9719 43.8188 31.2992 40.8425Z" fill="#FABC91"/>
<path d="M29.7554 40.2303C30.3157 39.4987 30.8461 38.807 31.2965 38.2202L30.6245 38.0614C30.2648 37.9766 29.9514 37.7861 29.7121 37.5271C29.7106 37.5285 29.7091 37.5297 29.7077 37.5311C29.3709 37.866 29.1606 38.3294 29.1558 38.8422C29.1511 39.3834 29.3794 39.8814 29.7554 40.2303Z" fill="#F8D3AA"/>
<path d="M51.1942 51.1401L50.3026 50.4235L43.6688 58.4202C43.2981 58.8671 42.6452 58.9311 42.1976 58.5645L37.6071 54.8042C37.4756 54.6965 37.3125 54.6346 37.1426 54.6278C35.5892 54.5696 34.0901 54.0275 32.8465 53.0749L29.8447 50.7742C29.8447 50.7742 27.4133 48.9297 25.9211 47.7563C25.1196 48.797 24.5793 49.5107 24.5793 49.5437C24.5793 49.6703 29.8021 53.5581 29.8021 53.5581L32.9001 55.8882C34.1837 56.8531 35.7308 57.4021 37.3341 57.4611L37.6043 57.4715L42.5513 61.4481C43.0132 61.8194 43.6871 61.7546 44.0697 61.3019L51.3442 52.6966C51.7404 52.2278 51.6726 51.5247 51.1942 51.1401Z" fill="#FAA875"/>
<path d="M36.5109 49.6052L36.8467 49.8484C37.8273 50.5586 39.1926 50.3753 39.9511 49.4316L43.8998 44.5187L42.8033 42.5243C42.4817 41.9392 42.0335 41.433 41.4912 41.0419L36.552 37.4871C36.0838 37.1494 35.5206 36.9686 34.943 36.9705L31.021 36.9857C30.5091 36.9876 30.0447 37.195 29.707 37.5309C29.3701 37.8658 29.1599 38.3292 29.1551 38.8421C29.1475 39.7193 29.7507 40.4843 30.6061 40.6822L31.2998 40.843C30.9164 41.3333 30.4767 41.8959 30.01 42.4936C30.0649 42.5088 30.1203 42.5231 30.1763 42.536L30.8712 42.6971L33.0855 43.2089C33.3097 45.7142 34.537 48.0195 36.5109 49.6052Z" fill="#FAA875"/>
<path d="M26.26 36.7768L24.1284 34.9667L23.0437 34.0949L21.8523 35.5907C21.6784 35.8091 21.36 35.8445 21.1424 35.6696L20.9352 35.503C20.3133 35.0031 20.0937 34.1872 20.3201 33.4695C20.1223 33.5864 19.9429 33.7418 19.7929 33.9348C19.1581 34.7512 19.3299 35.9353 20.136 36.5832L21.7721 37.8982L23.9328 39.8132L24.5824 38.9656L26.26 36.7768Z" fill="#FAA875"/>
<path d="M41.4913 41.0414L36.5521 37.4866C36.084 37.1489 35.5207 36.9681 34.9432 36.97L31.0211 36.9852C30.5092 36.9871 30.0449 37.1945 29.7071 37.5304C29.3703 37.8653 29.16 38.3287 29.1553 38.8416C29.1477 39.7188 29.7509 40.4838 30.6063 40.6817L31.2999 40.8425C28.9726 43.8188 24.5786 49.4488 24.5786 49.543C24.5786 49.6695 29.8013 53.5573 29.8013 53.5573L30.913 54.3934C31.0931 54.2079 31.2659 54.0137 31.4295 53.8101L41.6157 41.1364C41.5744 41.1044 41.5337 41.072 41.4913 41.0414Z" fill="#FAA875"/>
<path d="M41.352 35.9808C40.4871 35.2862 39.2236 35.4242 38.528 36.2881C38.8268 35.917 38.9714 35.4727 38.9714 35.0312C38.9714 34.4441 38.7145 33.8609 38.2207 33.4641C37.3567 32.7695 36.0922 32.9075 35.3967 33.7714C35.6954 33.4004 35.8401 32.956 35.8401 32.5145C35.8401 31.9274 35.5832 31.3451 35.0903 30.9484C34.2254 30.2528 32.9608 30.3908 32.2663 31.2547C32.9608 30.3908 32.8238 29.1263 31.9589 28.4317C31.5879 28.1329 31.1435 27.9883 30.702 27.9883C30.114 27.9883 29.5317 28.2452 29.1349 28.739L23.2371 36.0766L20.5774 39.4113L17.4668 37.3094C16.3965 38.7211 15.7478 40.4184 15.6151 42.2027L15.3401 45.9021L10.1069 52.412C9.77601 52.8236 9.83167 53.4236 10.2325 53.7674L19.4252 61.6503C19.8445 62.0099 20.4783 61.9511 20.8243 61.5205L25.5714 55.6139C25.6694 55.4931 25.8102 55.4132 25.9644 55.3913C27.677 55.1496 29.2337 54.2647 30.3174 52.9165L41.6592 38.8049C41.957 38.4338 42.1026 37.9895 42.1026 37.548C42.1028 36.9599 41.8459 36.3776 41.352 35.9808Z" fill="#FABC91"/>
<path d="M13.3861 53.0345C12.9945 52.6975 12.9402 52.1093 13.2633 51.7057L18.3741 45.3239L18.6427 41.6973C18.7219 40.6288 18.99 39.5925 19.4242 38.6321L17.4668 37.3093C16.3965 38.7211 15.7478 40.4183 15.6151 42.2026L15.3401 45.902L10.1069 52.4119C9.77601 52.8235 9.83167 53.4236 10.2325 53.7673L19.4252 61.6502C19.8445 62.0099 20.4783 61.9511 20.8243 61.5204L21.814 60.2891L13.3861 53.0345Z" fill="#FAA875"/>
<path d="M37.6651 35.9437C36.8705 35.3704 35.9322 35.0674 34.9517 35.0674L31.0136 35.0826C30.0144 35.0863 29.0738 35.4765 28.3648 36.1814C27.6563 36.8859 27.2611 37.8245 27.2519 38.8255C27.2363 40.6083 28.4391 42.1341 30.176 42.536L30.8708 42.6971L33.0852 43.2089C33.2256 44.7789 33.7601 46.2702 34.6253 47.5552L41.6516 38.813L37.6651 35.9437Z" fill="#FAA875"/>
<path d="M42.8025 42.5246L44.1594 44.9927L40.2858 49.9719L38.2354 48.5513L37.7035 48.1231C36.0098 46.7625 35.0032 44.7225 34.9527 42.5493L34.9337 41.6834L31.299 40.8433L30.6054 40.6825C29.75 40.4846 29.1468 39.7196 29.1544 38.8423C29.1591 38.3294 29.3694 37.8661 29.7062 37.5311C30.044 37.1953 30.5083 36.9878 31.0202 36.9859L34.9423 36.9707C35.5198 36.9688 36.0831 37.1496 36.5512 37.4874L41.4904 41.0421C42.0328 41.4332 42.4809 41.9394 42.8025 42.5246Z" fill="#FABC91"/>
<path d="M35.2259 6.95443C32.6738 6.07039 30.1534 6.06829 27.6644 6.94793C27.0657 7.15951 26.7879 7.85282 27.0632 8.42674L30.4864 15.5651C30.8757 16.3768 32.0274 16.3768 32.4168 15.5651L35.8355 8.4365C36.1123 7.85913 35.8292 7.16334 35.2259 6.95443Z" fill="url(#paint0_linear_221_182)"/>
<path d="M57.36 17.5317C56.0134 15.2024 54.1478 13.574 51.7634 12.6465C51.1898 12.4234 50.5577 12.7791 50.4087 13.3997L48.5542 21.1181C48.3434 21.9958 49.1966 22.7392 49.9841 22.364L56.9002 19.0688C57.4602 18.8021 57.6784 18.0823 57.36 17.5317Z" fill="url(#paint1_linear_221_182)"/>
<path d="M5.53852 17.5317C6.88513 15.2024 8.75076 13.574 11.1352 12.6465C11.7088 12.4234 12.3409 12.7791 12.4899 13.3997L14.3443 21.1181C14.5551 21.9958 13.702 22.7392 12.9145 22.364L5.99836 19.0688C5.43854 18.8021 5.2202 18.0823 5.53852 17.5317Z" fill="url(#paint2_linear_221_182)"/>
<path d="M20.6741 39.4002L21.8213 38.0532L20.6382 37.1829L19.505 38.5134C19.2383 38.8267 19.3011 39.2865 19.6433 39.5256C19.967 39.7517 20.4219 39.6963 20.6741 39.4002Z" fill="#FAA875"/>
</g>
<defs>
<linearGradient id="paint0_linear_221_182" x1="35.7523" y1="15.4183" x2="26.586" y2="-1.52298" gradientUnits="userSpaceOnUse">
<stop stop-color="#F09642"/>
<stop offset="1" stop-color="#F4E26E"/>
</linearGradient>
<linearGradient id="paint1_linear_221_182" x1="49.1899" y1="15.8991" x2="54.7656" y2="24.1305" gradientUnits="userSpaceOnUse">
<stop stop-color="#272671"/>
<stop offset="1" stop-color="#7BB3CB"/>
</linearGradient>
<linearGradient id="paint2_linear_221_182" x1="6.05952" y1="15.8991" x2="11.6352" y2="24.1305" gradientUnits="userSpaceOnUse">
<stop stop-color="#272671"/>
<stop offset="1" stop-color="#7BB3CB"/>
</linearGradient>
<clipPath id="clip0_221_182">
<rect width="62" height="62" fill="white"/>
</clipPath>
</defs>
</svg>
