<svg width="29" height="36" viewBox="0 0 29 36" fill="none" xmlns="http://www.w3.org/2000/svg">
<path d="M14.3999 0.199829C15.536 0.199829 16.6556 0.474133 17.6646 0.999634C18.6735 1.52513 19.5424 2.28708 20.1987 3.22034C20.8549 4.15354 21.2798 5.23163 21.437 6.36389C21.5853 7.43218 21.4873 8.51829 21.1597 9.54358L27.9927 12.2096C28.1718 12.28 28.3259 12.4027 28.4341 12.5621C28.5422 12.7216 28.6002 12.9103 28.6001 13.1031V29.4694C28.6003 29.6622 28.5422 29.8508 28.4341 30.0104C28.3259 30.17 28.1719 30.2935 27.9927 30.3639L14.7456 35.5348L14.603 35.5905L14.5913 35.5758C14.5298 35.5897 14.4671 35.5989 14.4038 35.6002H14.3999C14.2819 35.6002 14.1652 35.5775 14.0552 35.5348H14.0542L0.808105 30.3639C0.628782 30.2938 0.475127 30.1708 0.366699 30.0114C0.258227 29.8517 0.199653 29.6625 0.199707 29.4694V13.1031C0.199635 12.9103 0.257564 12.7216 0.365723 12.5621C0.47389 12.4027 0.628036 12.28 0.807129 12.2096L7.63916 9.54358C7.31164 8.51837 7.21454 7.43208 7.36279 6.36389C7.51999 5.23163 7.94488 4.15354 8.60107 3.22034C9.25738 2.28708 10.1263 1.52513 11.1353 0.999634C12.1442 0.474133 13.2638 0.199829 14.3999 0.199829ZM2.10791 28.8131L13.4458 33.2389V18.9303L2.10791 14.5045V28.8131ZM24.1636 15.4899V20.5055C24.1631 20.6774 24.1163 20.846 24.0288 20.9938C23.9413 21.1415 23.816 21.263 23.6655 21.3453C23.5149 21.4277 23.3447 21.4681 23.1733 21.4615C23.0447 21.4566 22.9188 21.4255 22.8032 21.3707L22.6909 21.3082L21.77 20.7057L19.8677 22.7408C19.7786 22.8361 19.6707 22.9115 19.5513 22.9635C19.4617 23.0024 19.3667 23.0277 19.27 23.0377L19.1724 23.0426C19.0516 23.0427 18.9319 23.0194 18.8198 22.9742V22.9733C18.6425 22.9023 18.4903 22.7802 18.3833 22.6217C18.2761 22.4629 18.2184 22.2754 18.2183 22.0836V17.8121L15.354 18.9303V33.2389L26.6919 28.8131V14.5045L24.1636 15.4899ZM20.1265 17.067V19.6627L20.9282 18.8063L21.0522 18.6949C21.1851 18.5953 21.3426 18.5314 21.5093 18.5114C21.6762 18.4913 21.8448 18.5161 21.9976 18.5817L22.144 18.6608L22.2583 18.735V16.235L20.1265 17.067ZM3.7876 13.1022L14.3999 17.2457L16.4517 16.444L5.8833 12.2838L3.7876 13.1022ZM17.5894 13.7574C17.1459 13.9821 16.681 14.1587 16.2017 14.2848L19.0806 15.4176L20.4741 14.8746L17.5894 13.7574ZM20.3374 11.2789C20.0721 11.6871 19.7668 12.067 19.4253 12.4127L23.1147 13.8424L25.0103 13.1022L20.3374 11.2789ZM14.3999 2.13733C13.0224 2.13894 11.7015 2.69111 10.7271 3.67249C9.75247 4.65396 9.20417 5.98505 9.20264 7.37366C9.20272 8.40934 9.5074 9.42192 10.0786 10.2828C10.6499 11.1438 11.4621 11.8145 12.4116 12.2106C13.3611 12.6066 14.4057 12.7103 15.4136 12.5084C16.4215 12.3065 17.3477 11.8079 18.0747 11.0758C18.8016 10.3437 19.2969 9.41091 19.4976 8.39514C19.6982 7.37925 19.5952 6.32564 19.2017 5.36877C18.8081 4.41206 18.1412 3.59423 17.2866 3.01917C16.432 2.44423 15.4274 2.13733 14.3999 2.13733ZM17.2524 4.74377C17.3806 4.74835 17.5065 4.77905 17.6226 4.83362C17.7386 4.88818 17.8427 4.96544 17.9282 5.06116C18.0137 5.15683 18.0791 5.26876 18.1206 5.39026C18.1622 5.51185 18.1793 5.64095 18.1704 5.76917C18.1615 5.89728 18.1268 6.02277 18.0688 6.13733C18.0118 6.25 17.9322 6.34922 17.8364 6.43127L17.8374 6.43225L14.1821 9.74084C14.0108 9.89586 13.7889 9.98346 13.5581 9.98694C13.3561 9.98995 13.1595 9.92797 12.9956 9.81213L12.9272 9.7594L10.9829 8.10706C10.7898 7.94264 10.67 7.70778 10.6489 7.45471C10.6279 7.20164 10.7075 6.9498 10.8706 6.75549C11.0338 6.56127 11.2676 6.43986 11.52 6.41858C11.7725 6.39734 12.0232 6.47781 12.2163 6.64221L13.5239 7.75647L16.561 5.00745C16.6521 4.92025 16.7599 4.85164 16.8774 4.80627C16.9969 4.76024 17.1245 4.73923 17.2524 4.74377Z" fill="url(#paint0_linear_221_489)" stroke="url(#paint1_linear_221_489)" stroke-width="0.4"/>
<defs>
<linearGradient id="paint0_linear_221_489" x1="3.8999" y1="0.400024" x2="14.3999" y2="35.4" gradientUnits="userSpaceOnUse">
<stop offset="0.103646" stop-color="#F09642"/>
<stop offset="1" stop-color="#F0DF42"/>
</linearGradient>
<linearGradient id="paint1_linear_221_489" x1="5.06657" y1="0.400025" x2="26.2548" y2="25.1196" gradientUnits="userSpaceOnUse">
<stop stop-color="#F09642"/>
<stop offset="1" stop-color="#F0DF42"/>
</linearGradient>
</defs>
</svg>
