<svg width="37" height="35" viewBox="0 0 37 35" fill="none" xmlns="http://www.w3.org/2000/svg">
<g clip-path="url(#clip0_221_494)">
<path d="M36.3975 16.9141C36.6637 16.9142 36.9163 17.0412 37.0664 17.2588C37.2178 17.4778 37.2425 17.7571 37.1309 17.998L32.6865 27.5518C31.6878 29.699 29.6585 31.3156 27.2607 31.8828L26.4951 32.0625L21.9561 33.7812C20.8136 34.2133 19.5946 34.4277 18.377 34.4277C17.0629 34.4277 15.7482 34.1778 14.5303 33.6768L8.82617 31.3311V31.3301C6.78084 30.4885 4.61766 29.956 2.39746 29.7461L0.524414 29.5684C0.122254 29.5305 -0.200195 29.2068 -0.200195 28.8018V23.2432C-0.20014 23.0738 -0.141662 22.9103 -0.0361328 22.7773L0.171875 22.5342C0.526699 22.139 1.31386 21.3429 2.45801 20.6367C3.98544 19.694 6.15933 18.9057 8.78809 19.459C11.6997 20.071 14.0432 21.2157 15.4961 22.0684C16.5094 22.6628 17.6999 22.9785 18.9395 22.9785H24.6436C25.5997 22.9785 26.4531 23.415 26.9912 24.0928L31.7402 18.9189C32.7336 17.672 34.3463 16.9141 36.0303 16.9141H36.3975ZM35.1084 18.5625C34.2663 18.7627 33.5082 19.2315 32.9824 19.8945L32.9775 19.9004L32.9727 19.9053L27.583 25.7803C27.5773 27.3254 26.2515 28.5623 24.6445 28.5625H16.6855C15.6712 28.5625 14.668 28.7163 13.7061 29.0195L13.5322 29.0742L13.4619 28.9053L13.2402 28.373L13.2354 28.3623L13.0488 27.8203L12.9805 27.624L13.1787 27.5635L13.209 27.5537C14.3299 27.2005 15.5009 27.0215 16.6855 27.0215H24.6445C25.3901 27.0213 25.9785 26.4488 25.9785 25.7695C25.9782 25.0904 25.3903 24.5188 24.6445 24.5186H18.9395C17.4073 24.5185 15.9267 24.1261 14.6582 23.3818C13.3101 22.5907 11.1369 21.5303 8.44531 20.9639C4.77319 20.1934 2.09232 22.7748 1.40625 23.5244V28.1035L2.55566 28.2129C4.93926 28.4383 7.26176 29.0114 9.45898 29.915L15.1631 32.2607C17.1218 33.0664 19.3826 33.0972 21.3662 32.3467L25.9512 30.6123H25.9531C25.9862 30.6 26.0198 30.5892 26.0547 30.5811L26.876 30.3867C28.8021 29.9311 30.4257 28.6332 31.2207 26.9229L35.1084 18.5625Z" fill="url(#paint0_linear_221_494)" stroke="url(#paint1_linear_221_494)" stroke-width="0.4"/>
<path d="M20.7681 10.5078C22.0739 8.85417 24.4992 8.14526 27.894 8.32422L27.8931 8.3252C28.2942 8.34604 28.6299 8.65196 28.6509 9.05469C28.6574 9.17757 28.7228 10.5874 28.4224 12.1953C28.1237 13.7942 27.4518 15.6501 25.9351 16.5869C25.2883 16.9868 24.5554 17.1855 23.7466 17.1855C22.781 17.1855 21.7116 16.9033 20.5493 16.3535H20.5483C20.411 16.2881 20.2956 16.186 20.2163 16.0596L20.1499 15.9258C20.123 15.8544 19.8348 15.0687 19.772 14.0215C19.7092 12.9748 19.8704 11.6443 20.7681 10.5078ZM27.0542 9.83984C24.5395 9.81182 22.8888 10.3733 22.0474 11.4385C21.5344 12.0885 21.373 12.8669 21.3657 13.5723C21.3592 14.2146 21.4823 14.7832 21.5718 15.1113C23.0901 15.7672 24.2475 15.7974 25.0659 15.292C25.8541 14.805 26.3564 13.8203 26.6597 12.7148C26.9367 11.705 27.0363 10.6314 27.0542 9.83984Z" fill="url(#paint2_linear_221_494)" stroke="url(#paint3_linear_221_494)" stroke-width="0.4"/>
<path d="M9.20776 0.646362C9.34655 0.638906 10.97 0.556596 12.824 0.848511C14.6658 1.13853 16.804 1.80755 17.8933 3.35437C18.9218 4.8142 18.8122 6.70049 17.6726 8.9071C17.5799 9.08645 17.4188 9.22118 17.2263 9.28796C17.1328 9.32069 15.9778 9.71277 14.5242 9.71277C13.4305 9.71273 12.1527 9.49097 11.032 8.71472C9.12222 7.39089 8.28013 4.89238 8.4519 1.37878C8.47197 0.976655 8.80553 0.668928 9.20679 0.646362H9.20776ZM10.0369 2.16785C10.0201 4.82675 10.6929 6.578 11.9714 7.46472C12.7597 8.01099 13.7009 8.17371 14.5457 8.17078C15.3234 8.16807 16.004 8.02322 16.3787 7.92566C17.1471 6.30951 17.1722 5.08375 16.5623 4.21765C15.9722 3.37978 14.7883 2.85436 13.4714 2.54578C12.2537 2.26043 10.9649 2.17034 10.0369 2.16785Z" fill="url(#paint4_linear_221_494)" stroke="url(#paint5_linear_221_494)" stroke-width="0.4"/>
<path d="M12.1934 4.66638C12.3961 4.32595 12.8357 4.18931 13.208 4.34314C17.0033 5.91391 19.3571 9.81261 20.0645 15.5345L20.1455 16.2728C21.5897 13.2645 23.4922 11.9149 24.082 11.5511L24.2549 11.4506C24.6114 11.2606 25.0608 11.3594 25.2969 11.6761L25.3408 11.7426V11.7435C25.5641 12.1203 25.4193 12.5914 25.0352 12.7972L25.0342 12.7963V12.7972C25.0321 12.7985 25.0292 12.8009 25.0254 12.8031C25.0173 12.8078 25.0051 12.8145 24.9902 12.8236C24.9604 12.8419 24.9179 12.8698 24.8633 12.9066C24.754 12.9802 24.5981 13.0918 24.4092 13.2465C24.0313 13.5558 23.5196 14.0363 22.9795 14.726C21.9013 16.1026 20.7026 18.3169 20.2197 21.6732C20.1451 22.839 20.0389 23.5837 20.0283 23.6556C19.9707 24.0471 19.621 24.3187 19.2334 24.3187C19.2076 24.3187 19.1826 24.3168 19.1592 24.3148H19.1582C18.7399 24.2773 18.4092 23.9304 18.4316 23.5082C18.4675 22.832 18.5281 22.19 18.6113 21.5814C18.7354 19.5699 18.7626 16.2428 17.9854 13.1C17.2053 9.94601 15.6271 7.02163 12.5723 5.7572C12.1695 5.59042 11.972 5.1365 12.1562 4.73767L12.1934 4.66638Z" fill="url(#paint6_linear_221_494)" stroke="url(#paint7_linear_221_494)" stroke-width="0.4"/>
</g>
<defs>
<linearGradient id="paint0_linear_221_494" x1="4.625" y1="17.1143" x2="6.67053" y2="35.5411" gradientUnits="userSpaceOnUse">
<stop offset="0.103646" stop-color="#F09642"/>
<stop offset="1" stop-color="#F0DF42"/>
</linearGradient>
<linearGradient id="paint1_linear_221_494" x1="6.16667" y1="17.1143" x2="12.2089" y2="36.1651" gradientUnits="userSpaceOnUse">
<stop stop-color="#F09642"/>
<stop offset="1" stop-color="#F0DF42"/>
</linearGradient>
<linearGradient id="paint2_linear_221_494" x1="21.0222" y1="8.49707" x2="23.1188" y2="17.2469" gradientUnits="userSpaceOnUse">
<stop offset="0.103646" stop-color="#F09642"/>
<stop offset="1" stop-color="#F0DF42"/>
</linearGradient>
<linearGradient id="paint3_linear_221_494" x1="21.3765" y1="8.49707" x2="26.2241" y2="15.5779" gradientUnits="userSpaceOnUse">
<stop stop-color="#F09642"/>
<stop offset="1" stop-color="#F0DF42"/>
</linearGradient>
<linearGradient id="paint4_linear_221_494" x1="9.85097" y1="0.829956" x2="11.7815" y2="9.88198" gradientUnits="userSpaceOnUse">
<stop offset="0.103646" stop-color="#F09642"/>
<stop offset="1" stop-color="#F0DF42"/>
</linearGradient>
<linearGradient id="paint5_linear_221_494" x1="10.2581" y1="0.829956" x2="14.9848" y2="8.58714" gradientUnits="userSpaceOnUse">
<stop stop-color="#F09642"/>
<stop offset="1" stop-color="#F0DF42"/>
</linearGradient>
<linearGradient id="paint6_linear_221_494" x1="13.907" y1="4.47986" x2="20.7828" y2="23.3852" gradientUnits="userSpaceOnUse">
<stop offset="0.103646" stop-color="#F09642"/>
<stop offset="1" stop-color="#F0DF42"/>
</linearGradient>
<linearGradient id="paint7_linear_221_494" x1="14.447" y1="4.47986" x2="26.4684" y2="16.0487" gradientUnits="userSpaceOnUse">
<stop stop-color="#F09642"/>
<stop offset="1" stop-color="#F0DF42"/>
</linearGradient>
<clipPath id="clip0_221_494">
<rect width="37" height="35" fill="white"/>
</clipPath>
</defs>
</svg>
