<svg width="27" height="36" viewBox="0 0 27 36" fill="none" xmlns="http://www.w3.org/2000/svg">
<path d="M12.5884 0.199829C19.4154 0.200009 24.9761 5.64418 24.9761 12.3444C24.9764 14.1096 24.5834 15.854 23.8247 17.4547C23.0975 18.9888 22.0504 20.3547 20.7534 21.4674L26.2896 26.8932L26.3931 27.0045C26.6088 27.2763 26.6441 27.6276 26.5513 27.9283C26.4456 28.2705 26.1655 28.5731 25.7573 28.6422L25.7583 28.6432L22.436 29.2936L21.7729 32.5475L21.772 32.5465C21.7001 32.9508 21.3899 33.2242 21.0454 33.3268C20.7005 33.4295 20.2891 33.3711 20.0015 33.0748V33.0758L17.0396 30.1735V34.5592C17.0529 34.973 16.8005 35.3045 16.481 35.4723C16.1613 35.6401 15.7432 35.6613 15.4028 35.4235V35.4225L12.5884 33.5836L9.77197 35.4225L9.77295 35.4235C9.433 35.6612 9.01548 35.6398 8.6958 35.4723C8.37605 35.3046 8.12258 34.9734 8.13623 34.5592V23.6744C3.50129 21.9181 0.19977 17.5054 0.199707 12.3444C0.199707 5.64407 5.7612 0.199829 12.5884 0.199829ZM14.939 24.2672C13.3858 24.5609 11.79 24.561 10.2368 24.2672V32.6383L12.0073 31.483L12.1411 31.4088C12.2805 31.3443 12.4334 31.3102 12.5884 31.3102C12.7947 31.3102 12.9971 31.3705 13.1694 31.483L14.939 32.6383V24.2672ZM19.0396 22.7057C18.404 23.0876 17.7348 23.4119 17.0396 23.6754V27.2555L20.0981 30.2526L20.5142 28.2125C20.5551 28.0117 20.6563 27.8272 20.8032 27.6832C20.9501 27.5394 21.1369 27.4416 21.3394 27.402L23.4165 26.9948L19.0396 22.7057ZM12.5884 2.26624C6.91223 2.26624 2.30029 6.79158 2.30029 12.3444C2.30037 17.8971 6.91228 22.4215 12.5884 22.4215C18.2643 22.4213 22.8754 17.897 22.8755 12.3444C22.8755 6.79169 18.2644 2.26642 12.5884 2.26624ZM12.7856 3.50061C15.1578 3.54721 17.4161 4.51056 19.0688 6.18127C20.7216 7.85211 21.635 10.0958 21.6089 12.4244C21.5827 14.753 20.619 16.9762 18.9292 18.611C17.2396 20.2454 14.9608 21.1583 12.5884 21.1539V21.1549H12.3696C12.3347 21.1549 12.2999 21.1533 12.2661 21.15V21.149C12.2611 21.1486 12.2567 21.1485 12.2534 21.1481C9.88588 21.0573 7.64941 20.0555 6.02979 18.358C4.40798 16.6581 3.53589 14.3978 3.60498 12.0699C3.6742 9.74238 4.67843 7.53662 6.39795 5.93225C8.11755 4.32788 10.4134 3.45401 12.7856 3.50061ZM13.9321 5.7301C12.5956 5.46958 11.2104 5.60299 9.95166 6.11389C8.69292 6.62484 7.61702 7.49019 6.86084 8.59924C6.10491 9.70814 5.70166 11.0116 5.70166 12.3444C5.70382 14.1309 6.42902 15.8444 7.71924 17.109C9.00994 18.3739 10.7613 19.0865 12.5884 19.0885C13.9511 19.0884 15.2831 18.6923 16.4155 17.9508C17.5479 17.2093 18.43 16.1553 18.9507 14.9235C19.4712 13.6917 19.6076 12.3363 19.3423 11.0289C19.0769 9.72153 18.4212 8.52021 17.4585 7.57678C16.4957 6.63329 15.2686 5.99065 13.9321 5.7301ZM12.5884 6.87366C12.9563 6.87379 13.3441 7.05366 13.5269 7.43616L14.6089 9.55725L17.0034 9.91077H17.0024C17.4265 9.96183 17.7239 10.266 17.8394 10.6139C17.9548 10.9619 17.8964 11.3816 17.5815 11.6696L17.5825 11.6705L15.8599 13.3326L16.2554 15.6627L16.2739 15.818C16.2874 16.1737 16.0949 16.4841 15.8315 16.6715C15.5321 16.8845 15.1115 16.9595 14.7378 16.7565V16.7574L12.5874 15.6637L10.438 16.7574L10.437 16.7565C10.0629 16.9588 9.64254 16.8846 9.34326 16.6715C9.04243 16.4573 8.83493 16.082 8.92041 15.6627L9.31592 13.3317L7.59326 11.6705V11.6696C7.27899 11.3815 7.2211 10.9617 7.33643 10.6139C7.45178 10.2662 7.74885 9.96232 8.17236 9.91077L10.5659 9.55725L11.6489 7.43616C11.8317 7.05356 12.2203 6.87368 12.5884 6.87366ZM12.2007 10.9635C12.125 11.1119 12.0136 11.2395 11.8774 11.3365C11.7412 11.4335 11.5833 11.4966 11.4175 11.5211L10.5679 11.6461L11.1772 12.235C11.2974 12.351 11.3876 12.494 11.4399 12.652C11.4923 12.81 11.5058 12.9782 11.478 13.1422L11.3364 13.9733L12.105 13.5826C12.2542 13.5067 12.4206 13.4674 12.5884 13.4674C12.756 13.4675 12.9217 13.5068 13.0708 13.5826L13.8384 13.9733L13.6978 13.1422C13.67 12.9782 13.6835 12.8099 13.7358 12.652C13.7883 12.494 13.8784 12.351 13.9985 12.235L14.6069 11.6461L13.7583 11.5211C13.5925 11.4966 13.4345 11.4335 13.2983 11.3365C13.1621 11.2395 13.0508 11.1119 12.9751 10.9635L12.5874 10.2037L12.2007 10.9635Z" fill="url(#paint0_linear_221_502)" stroke="url(#paint1_linear_221_502)" stroke-width="0.4"/>
<defs>
<linearGradient id="paint0_linear_221_502" x1="3.6499" y1="0.400024" x2="14.8104" y2="34.9443" gradientUnits="userSpaceOnUse">
<stop offset="0.103646" stop-color="#F09642"/>
<stop offset="1" stop-color="#F0DF42"/>
</linearGradient>
<linearGradient id="paint1_linear_221_502" x1="4.73324" y1="0.400025" x2="26.1052" y2="23.553" gradientUnits="userSpaceOnUse">
<stop stop-color="#F09642"/>
<stop offset="1" stop-color="#F0DF42"/>
</linearGradient>
</defs>
</svg>
