<svg width="55" height="58" viewBox="0 0 55 58" fill="none" xmlns="http://www.w3.org/2000/svg">
<path d="M34.1707 28.6384C42.079 28.6384 48.4899 22.2274 48.4899 14.3192C48.4899 6.41092 42.079 0 34.1707 0C26.2625 0 19.8516 6.41092 19.8516 14.3192C19.8516 22.2274 26.2625 28.6384 34.1707 28.6384Z" fill="#FCCF23"/>
<path d="M35.3312 13.2943V7.74739C35.828 7.97061 36.2499 8.33243 36.5463 8.78944C36.8426 9.24646 37.0009 9.77927 37.002 10.324C37.002 10.6322 37.1244 10.9278 37.3423 11.1457C37.5603 11.3636 37.8559 11.4861 38.1641 11.4861C38.4723 11.4861 38.7679 11.3636 38.9858 11.1457C39.2037 10.9278 39.3262 10.6322 39.3262 10.324C39.3241 9.15929 38.9283 8.02952 38.2031 7.11824C37.4778 6.20695 36.4657 5.56768 35.3312 5.30431V4.19067C35.3312 3.88246 35.2087 3.58688 34.9908 3.36894C34.7729 3.151 34.4773 3.02856 34.1691 3.02856C33.8609 3.02856 33.5653 3.151 33.3473 3.36894C33.1294 3.58688 33.007 3.88246 33.007 4.19067V5.30431C31.8717 5.56617 30.8587 6.20511 30.1334 7.11683C29.408 8.02855 29.0131 9.15922 29.0131 10.3243C29.0131 11.4894 29.408 12.62 30.1334 13.5317C30.8587 14.4435 31.8717 15.0824 33.007 15.3443V20.8912C32.5101 20.668 32.0882 20.3062 31.7918 19.8491C31.4955 19.3921 31.3373 18.8593 31.3362 18.3146C31.3362 18.0064 31.2137 17.7108 30.9958 17.4929C30.7779 17.2749 30.4823 17.1525 30.1741 17.1525C29.8659 17.1525 29.5703 17.2749 29.3523 17.4929C29.1344 17.7108 29.012 18.0064 29.012 18.3146C29.014 19.4793 29.4098 20.6091 30.1351 21.5203C30.8604 22.4316 31.8725 23.0709 33.007 23.3343V24.4479C33.007 24.7561 33.1294 25.0517 33.3473 25.2696C33.5653 25.4876 33.8609 25.61 34.1691 25.61C34.4773 25.61 34.7729 25.4876 34.9908 25.2696C35.2087 25.0517 35.3312 24.7561 35.3312 24.4479V23.3343C36.4664 23.0724 37.4794 22.4335 38.2048 21.5217C38.9301 20.61 39.325 19.4794 39.325 18.3143C39.325 17.1492 38.9301 16.0186 38.2048 15.1068C37.4794 14.1951 36.4664 13.5562 35.3312 13.2943ZM31.3362 10.324C31.3373 9.77927 31.4955 9.24646 31.7918 8.78944C32.0882 8.33243 32.5101 7.97061 33.007 7.74739V12.8999C32.5103 12.6766 32.0885 12.3149 31.7921 11.858C31.4958 11.4011 31.3375 10.8685 31.3362 10.324ZM35.3312 20.8912V15.7374C35.8286 15.9599 36.251 16.3216 36.5474 16.7788C36.8438 17.2361 37.0015 17.7694 37.0015 18.3143C37.0015 18.8592 36.8438 19.3925 36.5474 19.8497C36.251 20.307 35.8286 20.6687 35.3312 20.8912Z" fill="#FCA40B"/>
<path d="M0 33.9829H10.447V56.8187H0V33.9829Z" fill="url(#paint0_linear_221_166)"/>
<path d="M10.4458 38.0919C12.6685 36.4511 15.3511 35.5512 18.1136 35.5197C20.8761 35.4881 23.5785 36.3264 25.8381 37.9159L26.0333 38.0534H33.0983C34.8419 38.0534 36.5141 38.746 37.747 39.9789C38.9799 41.2118 39.6725 42.884 39.6725 44.6276L50.7312 36.2139C51.0884 35.9422 51.5248 35.795 51.9736 35.7949C52.3634 35.7948 52.7452 35.9058 53.0742 36.1147C53.4033 36.3237 53.6661 36.622 53.8318 36.9749C53.9975 37.3277 54.0593 37.7204 54.01 38.1071C53.9607 38.4937 53.8024 38.8584 53.5534 39.1584L41.8659 53.2524C40.4591 54.9487 38.5801 56.1888 36.4673 56.8154C34.3546 57.442 32.1033 57.4269 29.9991 56.7719L17.4988 52.8825L10.4458 53.0817V38.0919Z" fill="#FABC91"/>
<path d="M39.6742 45.7891H26.8232C26.515 45.7891 26.2194 45.6666 26.0015 45.4487C25.7836 45.2307 25.6611 44.9352 25.6611 44.627C25.6611 44.3187 25.7836 44.0232 26.0015 43.8052C26.2194 43.5873 26.515 43.4648 26.8232 43.4648H39.6742C39.9824 43.4648 40.278 43.5873 40.4959 43.8052C40.7139 44.0232 40.8363 44.3187 40.8363 44.627C40.8363 44.9352 40.7139 45.2307 40.4959 45.4487C40.278 45.6666 39.9824 45.7891 39.6742 45.7891Z" fill="#FAA875"/>
<defs>
<linearGradient id="paint0_linear_221_166" x1="0.776841" y1="41.6521" x2="14.0579" y2="51.519" gradientUnits="userSpaceOnUse">
<stop stop-color="#272671"/>
<stop offset="1" stop-color="#7BB3CB"/>
</linearGradient>
</defs>
</svg>
