<svg width="80" height="63" viewBox="0 0 80 63" fill="none" xmlns="http://www.w3.org/2000/svg">
<path d="M77.5556 26.8444C80.3511 17.5324 64.5012 6.77397 44.9931 8.30695C26.8777 9.7305 0.479281 24.4867 1.20368 46.5969C1.45234 54.1867 7.82364 62.3776 18.9134 61.9856C29.5215 61.6101 38.7689 46.0445 47.7227 41.7515C59.447 36.1302 73.2468 41.1974 77.5556 26.8444Z" fill="url(#paint0_linear_221_539)"/>
<g clip-path="url(#clip0_221_539)">
<path d="M29.7202 27.0024C39.7025 27.0024 47.8226 35.1236 47.8228 45.105C47.8228 45.9438 47.1442 46.6234 46.3062 46.6235C45.4673 46.6235 44.7866 45.9442 44.7866 45.105C44.7864 36.7981 38.028 30.0396 29.7202 30.0396C21.4126 30.0397 14.654 36.7982 14.6538 45.105C14.6538 45.944 13.9732 46.6235 13.1353 46.6235C12.2972 46.6235 11.6167 45.9441 11.6167 45.105C11.6169 35.1237 19.7381 27.0026 29.7202 27.0024Z" fill="white" stroke="white" stroke-width="0.4"/>
<path d="M29.7202 8.37744C35.5571 8.37744 40.3062 13.1263 40.3062 18.9624C40.3059 24.7991 35.557 29.5474 29.7202 29.5474C23.8836 29.5471 19.1355 24.799 19.1353 18.9624C19.1353 13.1265 23.8835 8.37766 29.7202 8.37744ZM29.7202 11.4146C25.558 11.4148 22.1724 14.801 22.1724 18.9624C22.1726 23.1245 25.5581 26.51 29.7202 26.5103C33.8825 26.5103 37.2688 23.1246 37.269 18.9624C37.269 14.8009 33.8827 11.4146 29.7202 11.4146Z" fill="white" stroke="white" stroke-width="0.4"/>
<path d="M14.9619 26.2153C17.6043 26.2153 20.2136 26.9515 22.7148 28.3979C23.4406 28.818 23.6884 29.7467 23.2695 30.4731C22.8495 31.1987 21.9209 31.4466 21.1953 31.0278H21.1943C19.1533 29.8465 17.0573 29.2524 14.9619 29.2524C8.56246 29.2525 3.62944 33.6886 2.92578 39.7964H11.4648C12.3026 39.7966 12.9822 40.4762 12.9824 41.314C12.9824 42.1519 12.3028 42.8323 11.4648 42.8325H1.31836C0.480229 42.8325 -0.200195 42.1521 -0.200195 41.314C-0.199985 32.7091 6.32255 26.2154 14.9619 26.2153Z" fill="white" stroke="white" stroke-width="0.4"/>
<path d="M15.0237 11.0142C17.4301 11.0142 19.6929 11.9519 21.3948 13.6528L21.4993 13.7681C21.9535 14.3249 21.9536 15.1297 21.4993 15.686L21.3948 15.8013C20.8019 16.394 19.8406 16.3941 19.2483 15.8013C18.1187 14.6726 16.62 14.0514 15.0237 14.0513C11.7295 14.0513 9.04907 16.7308 9.04907 20.0249C9.04921 23.3181 11.7296 25.9995 15.0237 25.9995C16.9818 25.9994 18.8193 25.0357 19.9368 23.4233C20.4145 22.7341 21.3599 22.5631 22.0491 23.0405C22.7382 23.5181 22.9109 24.4651 22.4319 25.1538L22.4309 25.1528C20.7459 27.5818 17.978 29.0355 15.0237 29.0356C10.0542 29.0356 6.0121 24.9934 6.01196 20.0249C6.01196 15.0562 10.0542 11.0142 15.0237 11.0142Z" fill="white" stroke="white" stroke-width="0.4"/>
<path d="M39.4578 11.3618C44.5068 11.3619 48.9382 15.6763 48.9382 20.6118C48.9381 23.3362 47.7276 25.7799 45.7478 27.4233C51.3465 29.6993 55.1999 35.0936 55.2 41.314C55.2 42.1521 54.5195 42.8325 53.6814 42.8325H46.6179C45.7798 42.8325 45.0994 42.1521 45.0994 41.314C45.0994 40.4759 45.7798 39.7954 46.6179 39.7954H52.0632C51.3604 34.3601 46.9324 29.9982 41.2068 29.3784C40.4633 29.2983 39.887 28.6879 39.8533 27.9399V27.8003C39.8843 27.1109 40.3811 26.5201 41.0691 26.3813C43.919 25.8062 45.9019 23.433 45.9021 20.6118C45.9021 17.3727 42.8315 14.399 39.4578 14.3989C38.6198 14.3989 37.9393 13.7194 37.9392 12.8804C37.9392 12.0413 38.6197 11.3618 39.4578 11.3618Z" fill="white" stroke="white" stroke-width="0.4"/>
</g>
<defs>
<linearGradient id="paint0_linear_221_539" x1="1.72778" y1="62.5937" x2="62.6626" y2="-12.4132" gradientUnits="userSpaceOnUse">
<stop stop-color="#F09642" stop-opacity="0.78"/>
<stop offset="1" stop-color="#F0D542" stop-opacity="0.79"/>
</linearGradient>
<clipPath id="clip0_221_539">
<rect width="55" height="55" fill="white"/>
</clipPath>
</defs>
</svg>
