<svg width="108" height="66" viewBox="0 0 108 66" fill="none" xmlns="http://www.w3.org/2000/svg">
<path d="M80 34.1436C80 55.4603 63.184 66 41.5094 66C19.8349 66 0 49.4617 0 28.1451C0 6.82847 10.566 0.000362428 20.3774 0C29.7626 0 38.001 8.78938 46.0377 12.6183C56.5613 17.632 80 22.0573 80 34.1436Z" fill="url(#paint0_linear_221_508)"/>
<path d="M60.333 11.7998C53.8201 11.7932 47.3813 13.0773 41.4482 15.5654L40.7773 15.8516C39.2296 16.5255 37.7232 17.2775 36.2646 18.1055L27.1318 19.3135C26.3799 19.4137 25.7998 20.0158 25.7998 20.749V30.873L25.8037 31.0625C25.8773 33.0211 27.1953 34.7515 29.1572 35.4707L29.1562 35.4717L33.5283 37.0957L33.5293 37.0967C33.7116 37.1639 33.9056 37.1973 34.1006 37.1973H34.4512C35.3089 39.3389 37.1481 41.0142 39.4697 41.7676C43.7205 43.147 48.3834 41.1162 49.9512 37.1973H85.751C86.6086 39.3389 88.4473 41.0141 90.7695 41.7676C95.0203 43.1471 99.6832 41.1162 101.251 37.1973H105.649C106.491 37.1973 107.2 36.5624 107.2 35.7471V28.3252C107.197 26.2051 105.97 24.2556 103.997 23.208H103.996C99.275 20.7165 93.9484 19.3747 88.5166 19.3105L83.9287 16.9951H83.9277C77.1758 13.5912 69.6126 11.8049 61.9268 11.7998H60.333ZM92.4561 29.7949C95.2844 29.2598 98.0241 30.9517 98.5957 33.5391C99.1653 36.1209 97.3692 38.6637 94.5439 39.1982C91.7158 39.7334 88.9766 38.0422 88.4053 35.4551C88.3359 35.14 88.2998 34.8191 88.2998 34.498C88.2993 32.2286 90.0257 30.2546 92.4561 29.7949ZM41.1562 29.7949C43.9845 29.2599 46.7248 30.9518 47.2959 33.5391C47.8654 36.121 46.0689 38.6638 43.2441 39.1982C40.4154 39.7333 37.6757 38.0422 37.1045 35.4551C37.0351 35.14 37 34.8191 37 34.498C36.9995 32.2285 38.7259 30.2546 41.1562 29.7949ZM88.1006 22.1992C93.1408 22.2008 98.0927 23.4192 102.469 25.7324C103.482 26.269 104.099 27.2607 104.101 28.3262V34.2979H101.794C101.679 30.1246 97.9976 26.7988 93.5 26.7988C89.0024 26.7988 85.3206 30.1246 85.2061 34.2979H64V22.1992H88.1006ZM45.1602 21.7793C45.4514 22.0494 45.8437 22.1982 46.25 22.1982H60.8994V34.2969H50.4902C50.3719 30.125 46.6914 26.801 42.1953 26.7969C41.9059 26.7969 41.6307 26.8106 41.3555 26.8359C41.2981 26.8409 41.2428 26.8496 41.1934 26.8574C41.1422 26.8655 41.0981 26.8724 41.0527 26.8779L41.0498 26.8789C40.8902 26.9006 40.7069 26.9193 40.5342 26.9521C40.4761 26.9633 40.4208 26.9774 40.3701 26.9902C40.318 27.0035 40.2717 27.0151 40.2246 27.0254H40.2217L39.7432 27.1396L39.7422 27.1406C39.6239 27.1752 39.5194 27.215 39.3975 27.2559C39.2712 27.2978 39.104 27.3496 38.9824 27.3975H38.9834C38.8637 27.4441 38.7515 27.4989 38.6387 27.5488C38.5215 27.6007 38.3759 27.6615 38.2617 27.7178L38.0938 27.8057C38.0393 27.8363 37.9845 27.8689 37.9258 27.9043C37.8726 27.9365 37.8178 27.967 37.7588 27.999C37.7014 28.0302 37.6392 28.0635 37.5801 28.0996L37.5791 28.1006L37.2568 28.3203C37.1703 28.3806 37.0458 28.4571 36.9385 28.542H36.9375C36.8367 28.6218 36.7174 28.7297 36.6387 28.7949L36.6377 28.7959C36.5543 28.8653 36.4502 28.9447 36.3516 29.0371L36.3506 29.0381C36.3 29.0858 36.2498 29.138 36.2051 29.1846C36.1589 29.2327 36.119 29.2749 36.082 29.3096C35.9988 29.3877 35.9112 29.4688 35.8184 29.5723C35.7273 29.6738 35.6373 29.7895 35.5664 29.8779L35.3398 30.1592L35.2217 30.3271C35.1843 30.3835 35.1495 30.4394 35.1182 30.4912C35.091 30.5356 35.0608 30.5787 35.0264 30.6289C34.993 30.6776 34.9555 30.7321 34.9199 30.792V30.793C34.8544 30.9043 34.7906 31.0353 34.7402 31.1299C34.7163 31.1748 34.6856 31.2286 34.6543 31.2861L34.5654 31.4678C34.5405 31.5273 34.5172 31.5879 34.4951 31.6455L34.4287 31.8135V31.8145C34.3865 31.92 34.3331 32.0424 34.291 32.1641L34.1855 32.5283C34.1519 32.6423 34.1096 32.7774 34.0811 32.8984L34.0137 33.2734V33.2744C33.9942 33.3877 33.9648 33.5282 33.9502 33.6611L33.9492 33.6621C33.9359 33.7887 33.9318 33.9454 33.9248 34.043C33.9231 34.0663 33.9225 34.0926 33.9199 34.1201L30.2979 32.7744L30.2969 32.7734C29.4437 32.4615 28.8974 31.7033 28.9004 30.874V25.9492H32.9502V23.0488H28.9004V22.0068L37.0176 20.9346H37.0186C37.1772 20.9133 37.3308 20.8688 37.4746 20.8037L37.6152 20.7324C38.9532 19.9611 40.3358 19.258 41.7568 18.627L45.1602 21.7793ZM60.9004 19.2998H46.8877L44.8301 17.3945C49.4563 15.7238 54.36 14.8144 59.3213 14.71L60.3359 14.6992H60.9004V19.2998ZM64 14.7637C70.2732 15.0432 76.4021 16.5924 81.9561 19.2998H64V14.7637Z" fill="white" stroke="white" stroke-width="0.4"/>
<defs>
<linearGradient id="paint0_linear_221_508" x1="0" y1="0" x2="80" y2="76" gradientUnits="userSpaceOnUse">
<stop stop-color="#F09642" stop-opacity="0.78"/>
<stop offset="1" stop-color="#F0D542" stop-opacity="0.79"/>
</linearGradient>
</defs>
</svg>
