<svg width="75" height="81" viewBox="0 0 75 81" fill="none" xmlns="http://www.w3.org/2000/svg">
<path d="M52.5854 13.784C59.3469 16.008 70.9697 26.0206 66.793 45.4036C60.6494 63.9907 41.2385 76.4646 23.4659 70.6188C5.69321 64.773 2.99523 53.8396 5.77593 45.4258C8.43616 37.3775 24.4544 42.1774 29.9247 36.3355C37.0878 28.686 42.5084 10.4695 52.5854 13.784Z" fill="url(#paint0_linear_221_525)"/>
<g clip-path="url(#clip0_221_525)">
<path d="M32.1196 -0.200195C38.7562 -0.200195 44.1558 5.18894 44.1558 11.8135C44.1555 18.4378 38.756 23.8262 32.1196 23.8262C25.4833 23.8261 20.0837 18.4377 20.0835 11.8135C20.0835 5.18901 25.4832 -0.200073 32.1196 -0.200195ZM32.1196 2.34766C26.8898 2.34778 22.6353 6.59525 22.6353 11.8135C22.6355 17.0319 26.89 21.2782 32.1196 21.2783C37.3494 21.2783 41.6038 17.032 41.604 11.8135C41.604 6.59517 37.3495 2.34766 32.1196 2.34766Z" fill="white" stroke="white" stroke-width="0.4"/>
<path d="M47.4277 24.165C49.0351 22.3049 51.8599 22.0776 53.7461 23.6641H53.7471C55.6447 25.2654 55.8836 28.106 54.2812 29.999L54.2822 30C49.1189 36.1591 46.6981 39.0502 45.5586 40.4102C44.9892 41.0897 44.739 41.3872 44.627 41.5195C44.5731 41.5831 44.5476 41.6126 44.5332 41.6279C44.5258 41.6358 44.5171 41.6423 44.5088 41.6494C42.653 43.4519 40.205 44.4453 37.6152 44.4453H23.3105C22.6201 44.4454 21.9629 44.6759 21.4297 45.0996L21.209 45.293L20.1748 46.2871C20.5292 47.4658 20.2339 48.7942 19.3232 49.7031L19.3223 49.7041L14.1055 54.834C13.6358 55.2955 12.8991 55.3196 12.4014 54.9111L12.3047 54.8232L0.223633 42.6729C-0.271085 42.1751 -0.270224 41.3723 0.225586 40.876L5.34375 35.752H5.34473C6.13232 34.966 7.21396 34.6316 8.25684 34.7832C10.7401 30.3135 15.3001 27.9366 20.4971 27.9365C22.3784 27.9365 24.203 28.2981 25.9238 29.0107H37.8848C39.1901 29.0108 40.4014 29.5839 41.2383 30.5137L47.4277 24.165ZM8.23535 37.4307C7.92526 37.2395 7.54774 37.2558 7.26465 37.4561L7.14941 37.5527L2.92871 41.7773L13.2207 52.127L17.5264 47.8945C17.8502 47.5701 17.8688 47.0137 17.5195 46.665C12.6853 41.8469 10.4017 39.559 9.30371 38.4619C8.75375 37.9124 8.5028 37.6637 8.37793 37.5449C8.3148 37.4849 8.29056 37.4644 8.2793 37.4561C8.26588 37.4461 8.28135 37.458 8.23633 37.4307H8.23535ZM52.1006 25.6113C51.2793 24.9204 50.0443 25.0242 49.3486 25.8438L49.3477 25.8428C49.3309 25.8624 49.2615 25.9356 49.0869 26.1152C48.9044 26.303 48.5999 26.6148 48.1055 27.1221C47.1234 28.1296 45.3894 29.908 42.3584 33.0176C42.3762 33.1787 42.3887 33.3413 42.3887 33.5059C42.3887 35.9853 40.3681 38.0018 37.8848 38.002H29.1055C28.4015 38.002 27.8293 37.4325 27.8291 36.7285C27.8291 36.0248 28.4013 35.4541 29.1055 35.4541H37.8848C38.9614 35.4539 39.8369 34.5795 39.8369 33.5059C39.8367 32.4211 38.9432 31.5588 37.8848 31.5586H25.665C25.4891 31.5586 25.3148 31.5228 25.1533 31.4521C23.6835 30.8105 22.1177 30.4844 20.4971 30.4844C16.0189 30.4844 12.4281 32.5 10.4795 36.0361L18.6631 44.2031L19.4365 43.459C20.4803 42.4525 21.8573 41.8975 23.3105 41.8975H37.6152C39.5165 41.8975 41.3144 41.1767 42.6855 39.8662L52.3291 28.3613V28.3604C53.0267 27.5362 52.9224 26.3049 52.1006 25.6113Z" fill="white" stroke="white" stroke-width="0.4"/>
<path d="M31.9058 4.0957C32.61 4.0957 33.1821 4.666 33.1821 5.37012V6.48047C33.5987 6.63619 34.0453 6.88365 34.4927 7.27051L34.7056 7.46582L34.7944 7.56152C35.211 8.05514 35.1944 8.79349 34.7349 9.26758C34.2448 9.77259 33.4367 9.78598 32.9302 9.29688C32.5728 8.95171 32.2179 8.79199 31.9058 8.79199C31.4227 8.79201 31.0298 9.18467 31.0298 9.66602C31.0299 10.1471 31.4227 10.539 31.9058 10.5391C33.7958 10.5391 35.3333 12.0736 35.3335 13.9609C35.3335 15.3979 34.4409 16.6273 33.1821 17.1338V18.2568C33.1821 18.961 32.6099 19.5312 31.9058 19.5312C31.2017 19.5312 30.6304 18.961 30.6304 18.2568V17.1416C29.9256 16.8757 29.2676 16.3971 28.7085 15.7334C28.2548 15.1947 28.3244 14.3913 28.8638 13.9385C29.403 13.4863 30.2079 13.5554 30.6616 14.0938L30.8208 14.2695C31.1939 14.6514 31.5763 14.835 31.9058 14.835C32.3889 14.835 32.7817 14.4422 32.7817 13.9609C32.7815 13.4799 32.3888 13.0879 31.9058 13.0879C30.0156 13.0879 28.4782 11.5529 28.478 9.66602C28.478 8.22823 29.3709 6.99805 30.6304 6.49219V5.37012C30.6304 4.66601 31.2016 4.09572 31.9058 4.0957Z" fill="white" stroke="white" stroke-width="0.4"/>
</g>
<defs>
<linearGradient id="paint0_linear_221_525" x1="0" y1="62.9004" x2="78.0809" y2="15.4737" gradientUnits="userSpaceOnUse">
<stop stop-color="#F09642" stop-opacity="0.78"/>
<stop offset="1" stop-color="#F0D542" stop-opacity="0.79"/>
</linearGradient>
<clipPath id="clip0_221_525">
<rect width="55" height="55" fill="white"/>
</clipPath>
</defs>
</svg>
