<svg width="76" height="66" viewBox="0 0 76 66" fill="none" xmlns="http://www.w3.org/2000/svg">
<path d="M63.217 42.5575C63.2273 49.6843 57.3609 63.8799 37.6217 65.9999C18.0211 65.9999 0.0631379 51.4663 0.0359272 32.7335C0.00871654 14.0008 9.55498 8.00032 18.4275 8C26.9146 8 27.3848 24.7363 34.6574 28.1011C44.1804 32.507 63.2016 31.9361 63.217 42.5575Z" fill="url(#paint0_linear_221_514)"/>
<mask id="path-2-outside-1_221_514" maskUnits="userSpaceOnUse" x="28.5" y="1" width="43" height="54" fill="black">
<rect fill="white" x="28.5" y="1" width="43" height="54"/>
<path d="M50 2C38.6963 2 29.5 11.1962 29.5 22.5C29.5 29.5447 33.0722 35.7703 38.5 39.462V52.4999C38.5 53.009 38.758 53.4832 39.1855 53.7595C39.6128 54.0359 40.1513 54.0765 40.6155 53.8678L50 49.6449L59.3845 53.8679C59.581 53.9562 59.7907 54 59.9998 54C60.2846 54 60.568 53.919 60.8145 53.7596C61.2418 53.4832 61.5 53.009 61.5 52.5V39.4621C66.9278 35.7704 70.5 29.5448 70.5 22.5001C70.5 11.1962 61.3037 2 50 2ZM58.5 50.1802L50.6155 46.6322C50.4197 46.5441 50.2098 46.5 50 46.5C49.7902 46.5 49.5802 46.544 49.3845 46.6321L41.5 50.1801V41.1578C42.2539 41.5015 43.0277 41.7969 43.8162 42.046C43.8608 42.0602 43.9054 42.0747 43.9503 42.0885C44.051 42.1195 44.1519 42.1494 44.253 42.1787C44.3278 42.2007 44.4027 42.2224 44.4777 42.2435C44.5593 42.2663 44.6411 42.2883 44.723 42.3101C44.8185 42.3355 44.9141 42.3604 45.0101 42.3846C45.078 42.4016 45.1459 42.4182 45.214 42.4344C45.3244 42.4609 45.4351 42.4865 45.5462 42.5111C45.6038 42.5239 45.6614 42.5366 45.7191 42.5489C45.8408 42.5749 45.9629 42.5995 46.0855 42.6234C46.1353 42.633 46.1852 42.6429 46.2352 42.6522C46.365 42.6764 46.4953 42.699 46.6259 42.7208C46.6707 42.7283 46.7155 42.736 46.7603 42.7431C46.8951 42.7646 47.0305 42.7845 47.1663 42.8032C47.2083 42.809 47.2503 42.8153 47.2923 42.8209C47.4297 42.8391 47.5678 42.8554 47.7059 42.8709C47.7471 42.8755 47.7882 42.8806 47.8294 42.8851C47.9672 42.8997 48.1055 42.9122 48.2442 42.924C48.2862 42.9276 48.3281 42.9319 48.3702 42.9352C48.5068 42.9459 48.644 42.9546 48.7814 42.9627C48.8255 42.9653 48.8694 42.9688 48.9137 42.9711C49.0525 42.9784 49.1919 42.9834 49.3314 42.9879C49.3734 42.9893 49.4152 42.9915 49.4572 42.9927C49.6376 42.9973 49.8186 43 50.0002 43C50.1817 43 50.3627 42.9973 50.543 42.9927C50.5851 42.9915 50.6268 42.9893 50.6689 42.9879C50.8084 42.9834 50.9478 42.9783 51.0866 42.9711C51.1307 42.9688 51.1747 42.9653 51.2188 42.9627C51.3563 42.9546 51.4935 42.946 51.6301 42.9352C51.6722 42.9319 51.7141 42.9276 51.7561 42.924C51.8947 42.9122 52.0331 42.8996 52.1709 42.8851C52.2121 42.8807 52.2532 42.8756 52.2944 42.8709C52.4326 42.8553 52.5705 42.8391 52.7079 42.8209C52.7501 42.8153 52.7919 42.8091 52.834 42.8032C52.9697 42.7845 53.1051 42.7646 53.2399 42.7431C53.2848 42.7359 53.3295 42.7282 53.3744 42.7208C53.505 42.699 53.6353 42.6764 53.7651 42.6522C53.8151 42.6429 53.8649 42.6331 53.9148 42.6234C54.0373 42.5996 54.1594 42.5748 54.2812 42.5489C54.3389 42.5366 54.3965 42.5239 54.4541 42.5111C54.5652 42.4865 54.6759 42.4609 54.7863 42.4344C54.8543 42.4181 54.9222 42.4015 54.9902 42.3846C55.0861 42.3605 55.1817 42.3356 55.2773 42.3101C55.3591 42.2882 55.441 42.2664 55.5226 42.2435C55.5976 42.2224 55.6726 42.2007 55.7473 42.1787C55.8484 42.1493 55.9494 42.1195 56.05 42.0885C56.0949 42.0746 56.1394 42.0601 56.1841 42.046C56.9726 41.7969 57.7464 41.5016 58.5003 41.1579V50.1802H58.5ZM55.7107 39.0423C55.6509 39.0629 55.5911 39.0836 55.5311 39.1036C55.4399 39.1341 55.3483 39.1641 55.2564 39.193C55.1494 39.2266 55.0422 39.259 54.9346 39.2905C54.8587 39.3128 54.7828 39.3351 54.7065 39.3564C54.5642 39.3961 54.4214 39.4341 54.2781 39.4702C54.2247 39.4837 54.1711 39.4965 54.1175 39.5095C53.9773 39.5434 53.8364 39.5757 53.6952 39.6062C53.6597 39.6139 53.6244 39.622 53.5889 39.6293C53.4067 39.6674 53.2239 39.7028 53.0404 39.735C53.0217 39.7383 53.0029 39.7411 52.9841 39.7445C52.8188 39.773 52.6529 39.7989 52.4867 39.8226C52.4493 39.828 52.4118 39.8332 52.3741 39.8384C52.1969 39.8625 52.0194 39.8846 51.8412 39.9033C51.8345 39.904 51.8278 39.905 51.8211 39.9057C51.6346 39.9251 51.4475 39.941 51.2601 39.9543C51.2194 39.9573 51.1786 39.9594 51.1379 39.9621C50.9922 39.9716 50.8464 39.979 50.7003 39.9849C50.6506 39.9869 50.6009 39.9889 50.5513 39.9906C50.3677 39.9962 50.184 40 50 40C49.816 40 49.6322 39.9963 49.4487 39.9904C49.3989 39.9888 49.3493 39.9867 49.2997 39.9847C49.1536 39.9789 49.0078 39.9714 48.8621 39.9619C48.8214 39.9593 48.7806 39.9571 48.7399 39.9541C48.5525 39.9407 48.3654 39.9248 48.1789 39.9055C48.1722 39.9048 48.1655 39.9038 48.1588 39.9031C47.9806 39.8844 47.8031 39.8623 47.6259 39.8382C47.5884 39.8331 47.5509 39.8279 47.5133 39.8224C47.3471 39.7986 47.1812 39.7728 47.0159 39.7443C46.9972 39.7411 46.9784 39.7382 46.9596 39.7348C46.7761 39.7026 46.5932 39.6671 46.4111 39.6291C46.3756 39.6217 46.3403 39.6135 46.3047 39.606C46.1636 39.5756 46.0227 39.5432 45.8824 39.5093C45.8288 39.4963 45.7752 39.4835 45.7219 39.47C45.5786 39.434 45.4358 39.3958 45.2935 39.3562C45.2172 39.3349 45.1412 39.3126 45.0654 39.2903C44.9579 39.2587 44.8506 39.2264 44.7435 39.1928C44.6516 39.1637 44.5601 39.1339 44.4688 39.1034C44.4087 39.0834 44.3488 39.0627 44.2891 39.0421C37.4353 36.6695 32.5 30.1506 32.5 22.5C32.5 12.8505 40.3504 4.99995 50 4.99995C59.6495 4.99995 67.5 12.8504 67.5 22.5C67.5 30.1506 62.5646 36.6695 55.7107 39.0423Z"/>
</mask>
<path d="M50 2C38.6963 2 29.5 11.1962 29.5 22.5C29.5 29.5447 33.0722 35.7703 38.5 39.462V52.4999C38.5 53.009 38.758 53.4832 39.1855 53.7595C39.6128 54.0359 40.1513 54.0765 40.6155 53.8678L50 49.6449L59.3845 53.8679C59.581 53.9562 59.7907 54 59.9998 54C60.2846 54 60.568 53.919 60.8145 53.7596C61.2418 53.4832 61.5 53.009 61.5 52.5V39.4621C66.9278 35.7704 70.5 29.5448 70.5 22.5001C70.5 11.1962 61.3037 2 50 2ZM58.5 50.1802L50.6155 46.6322C50.4197 46.5441 50.2098 46.5 50 46.5C49.7902 46.5 49.5802 46.544 49.3845 46.6321L41.5 50.1801V41.1578C42.2539 41.5015 43.0277 41.7969 43.8162 42.046C43.8608 42.0602 43.9054 42.0747 43.9503 42.0885C44.051 42.1195 44.1519 42.1494 44.253 42.1787C44.3278 42.2007 44.4027 42.2224 44.4777 42.2435C44.5593 42.2663 44.6411 42.2883 44.723 42.3101C44.8185 42.3355 44.9141 42.3604 45.0101 42.3846C45.078 42.4016 45.1459 42.4182 45.214 42.4344C45.3244 42.4609 45.4351 42.4865 45.5462 42.5111C45.6038 42.5239 45.6614 42.5366 45.7191 42.5489C45.8408 42.5749 45.9629 42.5995 46.0855 42.6234C46.1353 42.633 46.1852 42.6429 46.2352 42.6522C46.365 42.6764 46.4953 42.699 46.6259 42.7208C46.6707 42.7283 46.7155 42.736 46.7603 42.7431C46.8951 42.7646 47.0305 42.7845 47.1663 42.8032C47.2083 42.809 47.2503 42.8153 47.2923 42.8209C47.4297 42.8391 47.5678 42.8554 47.7059 42.8709C47.7471 42.8755 47.7882 42.8806 47.8294 42.8851C47.9672 42.8997 48.1055 42.9122 48.2442 42.924C48.2862 42.9276 48.3281 42.9319 48.3702 42.9352C48.5068 42.9459 48.644 42.9546 48.7814 42.9627C48.8255 42.9653 48.8694 42.9688 48.9137 42.9711C49.0525 42.9784 49.1919 42.9834 49.3314 42.9879C49.3734 42.9893 49.4152 42.9915 49.4572 42.9927C49.6376 42.9973 49.8186 43 50.0002 43C50.1817 43 50.3627 42.9973 50.543 42.9927C50.5851 42.9915 50.6268 42.9893 50.6689 42.9879C50.8084 42.9834 50.9478 42.9783 51.0866 42.9711C51.1307 42.9688 51.1747 42.9653 51.2188 42.9627C51.3563 42.9546 51.4935 42.946 51.6301 42.9352C51.6722 42.9319 51.7141 42.9276 51.7561 42.924C51.8947 42.9122 52.0331 42.8996 52.1709 42.8851C52.2121 42.8807 52.2532 42.8756 52.2944 42.8709C52.4326 42.8553 52.5705 42.8391 52.7079 42.8209C52.7501 42.8153 52.7919 42.8091 52.834 42.8032C52.9697 42.7845 53.1051 42.7646 53.2399 42.7431C53.2848 42.7359 53.3295 42.7282 53.3744 42.7208C53.505 42.699 53.6353 42.6764 53.7651 42.6522C53.8151 42.6429 53.8649 42.6331 53.9148 42.6234C54.0373 42.5996 54.1594 42.5748 54.2812 42.5489C54.3389 42.5366 54.3965 42.5239 54.4541 42.5111C54.5652 42.4865 54.6759 42.4609 54.7863 42.4344C54.8543 42.4181 54.9222 42.4015 54.9902 42.3846C55.0861 42.3605 55.1817 42.3356 55.2773 42.3101C55.3591 42.2882 55.441 42.2664 55.5226 42.2435C55.5976 42.2224 55.6726 42.2007 55.7473 42.1787C55.8484 42.1493 55.9494 42.1195 56.05 42.0885C56.0949 42.0746 56.1394 42.0601 56.1841 42.046C56.9726 41.7969 57.7464 41.5016 58.5003 41.1579V50.1802H58.5ZM55.7107 39.0423C55.6509 39.0629 55.5911 39.0836 55.5311 39.1036C55.4399 39.1341 55.3483 39.1641 55.2564 39.193C55.1494 39.2266 55.0422 39.259 54.9346 39.2905C54.8587 39.3128 54.7828 39.3351 54.7065 39.3564C54.5642 39.3961 54.4214 39.4341 54.2781 39.4702C54.2247 39.4837 54.1711 39.4965 54.1175 39.5095C53.9773 39.5434 53.8364 39.5757 53.6952 39.6062C53.6597 39.6139 53.6244 39.622 53.5889 39.6293C53.4067 39.6674 53.2239 39.7028 53.0404 39.735C53.0217 39.7383 53.0029 39.7411 52.9841 39.7445C52.8188 39.773 52.6529 39.7989 52.4867 39.8226C52.4493 39.828 52.4118 39.8332 52.3741 39.8384C52.1969 39.8625 52.0194 39.8846 51.8412 39.9033C51.8345 39.904 51.8278 39.905 51.8211 39.9057C51.6346 39.9251 51.4475 39.941 51.2601 39.9543C51.2194 39.9573 51.1786 39.9594 51.1379 39.9621C50.9922 39.9716 50.8464 39.979 50.7003 39.9849C50.6506 39.9869 50.6009 39.9889 50.5513 39.9906C50.3677 39.9962 50.184 40 50 40C49.816 40 49.6322 39.9963 49.4487 39.9904C49.3989 39.9888 49.3493 39.9867 49.2997 39.9847C49.1536 39.9789 49.0078 39.9714 48.8621 39.9619C48.8214 39.9593 48.7806 39.9571 48.7399 39.9541C48.5525 39.9407 48.3654 39.9248 48.1789 39.9055C48.1722 39.9048 48.1655 39.9038 48.1588 39.9031C47.9806 39.8844 47.8031 39.8623 47.6259 39.8382C47.5884 39.8331 47.5509 39.8279 47.5133 39.8224C47.3471 39.7986 47.1812 39.7728 47.0159 39.7443C46.9972 39.7411 46.9784 39.7382 46.9596 39.7348C46.7761 39.7026 46.5932 39.6671 46.4111 39.6291C46.3756 39.6217 46.3403 39.6135 46.3047 39.606C46.1636 39.5756 46.0227 39.5432 45.8824 39.5093C45.8288 39.4963 45.7752 39.4835 45.7219 39.47C45.5786 39.434 45.4358 39.3958 45.2935 39.3562C45.2172 39.3349 45.1412 39.3126 45.0654 39.2903C44.9579 39.2587 44.8506 39.2264 44.7435 39.1928C44.6516 39.1637 44.5601 39.1339 44.4688 39.1034C44.4087 39.0834 44.3488 39.0627 44.2891 39.0421C37.4353 36.6695 32.5 30.1506 32.5 22.5C32.5 12.8505 40.3504 4.99995 50 4.99995C59.6495 4.99995 67.5 12.8504 67.5 22.5C67.5 30.1506 62.5646 36.6695 55.7107 39.0423Z" fill="white"/>
<path d="M50 2C38.6963 2 29.5 11.1962 29.5 22.5C29.5 29.5447 33.0722 35.7703 38.5 39.462V52.4999C38.5 53.009 38.758 53.4832 39.1855 53.7595C39.6128 54.0359 40.1513 54.0765 40.6155 53.8678L50 49.6449L59.3845 53.8679C59.581 53.9562 59.7907 54 59.9998 54C60.2846 54 60.568 53.919 60.8145 53.7596C61.2418 53.4832 61.5 53.009 61.5 52.5V39.4621C66.9278 35.7704 70.5 29.5448 70.5 22.5001C70.5 11.1962 61.3037 2 50 2ZM58.5 50.1802L50.6155 46.6322C50.4197 46.5441 50.2098 46.5 50 46.5C49.7902 46.5 49.5802 46.544 49.3845 46.6321L41.5 50.1801V41.1578C42.2539 41.5015 43.0277 41.7969 43.8162 42.046C43.8608 42.0602 43.9054 42.0747 43.9503 42.0885C44.051 42.1195 44.1519 42.1494 44.253 42.1787C44.3278 42.2007 44.4027 42.2224 44.4777 42.2435C44.5593 42.2663 44.6411 42.2883 44.723 42.3101C44.8185 42.3355 44.9141 42.3604 45.0101 42.3846C45.078 42.4016 45.1459 42.4182 45.214 42.4344C45.3244 42.4609 45.4351 42.4865 45.5462 42.5111C45.6038 42.5239 45.6614 42.5366 45.7191 42.5489C45.8408 42.5749 45.9629 42.5995 46.0855 42.6234C46.1353 42.633 46.1852 42.6429 46.2352 42.6522C46.365 42.6764 46.4953 42.699 46.6259 42.7208C46.6707 42.7283 46.7155 42.736 46.7603 42.7431C46.8951 42.7646 47.0305 42.7845 47.1663 42.8032C47.2083 42.809 47.2503 42.8153 47.2923 42.8209C47.4297 42.8391 47.5678 42.8554 47.7059 42.8709C47.7471 42.8755 47.7882 42.8806 47.8294 42.8851C47.9672 42.8997 48.1055 42.9122 48.2442 42.924C48.2862 42.9276 48.3281 42.9319 48.3702 42.9352C48.5068 42.9459 48.644 42.9546 48.7814 42.9627C48.8255 42.9653 48.8694 42.9688 48.9137 42.9711C49.0525 42.9784 49.1919 42.9834 49.3314 42.9879C49.3734 42.9893 49.4152 42.9915 49.4572 42.9927C49.6376 42.9973 49.8186 43 50.0002 43C50.1817 43 50.3627 42.9973 50.543 42.9927C50.5851 42.9915 50.6268 42.9893 50.6689 42.9879C50.8084 42.9834 50.9478 42.9783 51.0866 42.9711C51.1307 42.9688 51.1747 42.9653 51.2188 42.9627C51.3563 42.9546 51.4935 42.946 51.6301 42.9352C51.6722 42.9319 51.7141 42.9276 51.7561 42.924C51.8947 42.9122 52.0331 42.8996 52.1709 42.8851C52.2121 42.8807 52.2532 42.8756 52.2944 42.8709C52.4326 42.8553 52.5705 42.8391 52.7079 42.8209C52.7501 42.8153 52.7919 42.8091 52.834 42.8032C52.9697 42.7845 53.1051 42.7646 53.2399 42.7431C53.2848 42.7359 53.3295 42.7282 53.3744 42.7208C53.505 42.699 53.6353 42.6764 53.7651 42.6522C53.8151 42.6429 53.8649 42.6331 53.9148 42.6234C54.0373 42.5996 54.1594 42.5748 54.2812 42.5489C54.3389 42.5366 54.3965 42.5239 54.4541 42.5111C54.5652 42.4865 54.6759 42.4609 54.7863 42.4344C54.8543 42.4181 54.9222 42.4015 54.9902 42.3846C55.0861 42.3605 55.1817 42.3356 55.2773 42.3101C55.3591 42.2882 55.441 42.2664 55.5226 42.2435C55.5976 42.2224 55.6726 42.2007 55.7473 42.1787C55.8484 42.1493 55.9494 42.1195 56.05 42.0885C56.0949 42.0746 56.1394 42.0601 56.1841 42.046C56.9726 41.7969 57.7464 41.5016 58.5003 41.1579V50.1802H58.5ZM55.7107 39.0423C55.6509 39.0629 55.5911 39.0836 55.5311 39.1036C55.4399 39.1341 55.3483 39.1641 55.2564 39.193C55.1494 39.2266 55.0422 39.259 54.9346 39.2905C54.8587 39.3128 54.7828 39.3351 54.7065 39.3564C54.5642 39.3961 54.4214 39.4341 54.2781 39.4702C54.2247 39.4837 54.1711 39.4965 54.1175 39.5095C53.9773 39.5434 53.8364 39.5757 53.6952 39.6062C53.6597 39.6139 53.6244 39.622 53.5889 39.6293C53.4067 39.6674 53.2239 39.7028 53.0404 39.735C53.0217 39.7383 53.0029 39.7411 52.9841 39.7445C52.8188 39.773 52.6529 39.7989 52.4867 39.8226C52.4493 39.828 52.4118 39.8332 52.3741 39.8384C52.1969 39.8625 52.0194 39.8846 51.8412 39.9033C51.8345 39.904 51.8278 39.905 51.8211 39.9057C51.6346 39.9251 51.4475 39.941 51.2601 39.9543C51.2194 39.9573 51.1786 39.9594 51.1379 39.9621C50.9922 39.9716 50.8464 39.979 50.7003 39.9849C50.6506 39.9869 50.6009 39.9889 50.5513 39.9906C50.3677 39.9962 50.184 40 50 40C49.816 40 49.6322 39.9963 49.4487 39.9904C49.3989 39.9888 49.3493 39.9867 49.2997 39.9847C49.1536 39.9789 49.0078 39.9714 48.8621 39.9619C48.8214 39.9593 48.7806 39.9571 48.7399 39.9541C48.5525 39.9407 48.3654 39.9248 48.1789 39.9055C48.1722 39.9048 48.1655 39.9038 48.1588 39.9031C47.9806 39.8844 47.8031 39.8623 47.6259 39.8382C47.5884 39.8331 47.5509 39.8279 47.5133 39.8224C47.3471 39.7986 47.1812 39.7728 47.0159 39.7443C46.9972 39.7411 46.9784 39.7382 46.9596 39.7348C46.7761 39.7026 46.5932 39.6671 46.4111 39.6291C46.3756 39.6217 46.3403 39.6135 46.3047 39.606C46.1636 39.5756 46.0227 39.5432 45.8824 39.5093C45.8288 39.4963 45.7752 39.4835 45.7219 39.47C45.5786 39.434 45.4358 39.3958 45.2935 39.3562C45.2172 39.3349 45.1412 39.3126 45.0654 39.2903C44.9579 39.2587 44.8506 39.2264 44.7435 39.1928C44.6516 39.1637 44.5601 39.1339 44.4688 39.1034C44.4087 39.0834 44.3488 39.0627 44.2891 39.0421C37.4353 36.6695 32.5 30.1506 32.5 22.5C32.5 12.8505 40.3504 4.99995 50 4.99995C59.6495 4.99995 67.5 12.8504 67.5 22.5C67.5 30.1506 62.5646 36.6695 55.7107 39.0423Z" stroke="white" stroke-width="0.8" mask="url(#path-2-outside-1_221_514)"/>
<path d="M50.002 8.7998C50.5882 8.79991 51.1328 9.10249 51.4434 9.59961L54.5635 14.5957L60.4531 14.8008C61.0391 14.8211 61.5731 15.1428 61.8662 15.6504C62.1592 16.158 62.1701 16.7813 61.8945 17.2988L59.127 22.5L61.8945 27.7012C62.1701 28.2188 62.1593 28.8419 61.8662 29.3496C61.5731 29.8572 61.039 30.1788 60.4531 30.1992L54.5645 30.4023L51.4434 35.4004C51.1328 35.8974 50.5882 36.2001 50.002 36.2002C49.4156 36.2002 48.8701 35.8976 48.5596 35.4004L45.4385 30.4023L39.5508 30.1992C38.9647 30.179 38.4299 29.8573 38.1367 29.3496C37.8438 28.842 37.8329 28.2187 38.1084 27.7012L40.875 22.5L38.1084 17.2988C37.8329 16.7813 37.8439 16.158 38.1367 15.6504C38.4299 15.1427 38.9647 14.821 39.5508 14.8008L45.4395 14.5957L48.5596 9.59961C48.8702 9.1024 49.4156 8.7998 50.002 8.7998ZM47.8438 17.165C47.5444 17.6446 47.0258 17.9442 46.4609 17.9639L42.3887 18.1045L44.3027 21.7012C44.5684 22.2004 44.5684 22.7996 44.3027 23.2988L42.3887 26.8945L46.4609 27.0361C47.0258 27.0559 47.5443 27.3554 47.8438 27.835L50.001 31.291L52.1602 27.835C52.4596 27.3553 52.9779 27.0557 53.543 27.0361L57.6133 26.8945L55.7012 23.2988C55.4355 22.7997 55.4356 22.2004 55.7012 21.7012L57.6133 18.1045L53.543 17.9639C52.978 17.9442 52.4597 17.6446 52.1602 17.165L50.001 13.708L47.8438 17.165Z" fill="white" stroke="white" stroke-width="0.4"/>
<defs>
<linearGradient id="paint0_linear_221_514" x1="0" y1="8" x2="69.622" y2="67.3261" gradientUnits="userSpaceOnUse">
<stop stop-color="#F09642" stop-opacity="0.78"/>
<stop offset="1" stop-color="#F0D542" stop-opacity="0.79"/>
</linearGradient>
</defs>
</svg>
